<svg width="143" height="18" viewBox="0 0 143 18" fill="none" xmlns="http://www.w3.org/2000/svg">
<path d="M141.782 0.947266H126.849C126.143 0.947266 125.578 1.49735 125.578 2.18496V16.7622C125.578 17.4223 126.143 17.9999 126.849 17.9999H141.726C142.432 17.9999 142.996 17.4498 142.996 16.7622V2.15745C143.053 1.49735 142.488 0.947266 141.782 0.947266ZM130.744 15.442H128.176V7.32825H130.744V15.442ZM129.446 6.20058C128.599 6.20058 127.95 5.54047 127.95 4.74285C127.95 3.94523 128.627 3.28513 129.446 3.28513C130.265 3.28513 130.942 3.94523 130.942 4.74285C130.942 5.54047 130.321 6.20058 129.446 6.20058ZM140.484 15.442H137.915V11.5089C137.915 10.5738 137.887 9.33606 136.56 9.33606C135.205 9.33606 135.007 10.3812 135.007 11.4264V15.442H132.438V7.32825H134.951V8.45592H134.979C135.346 7.79582 136.165 7.13572 137.435 7.13572C140.06 7.13572 140.54 8.78598 140.54 11.0413V15.442H140.484Z" fill="#CDCED6"/>
<path d="M89.9179 12.4993C91.6928 12.4993 93.1316 11.091 93.1316 9.35366C93.1316 7.61637 91.6928 6.20801 89.9179 6.20801C88.143 6.20801 86.7041 7.61637 86.7041 9.35366C86.7041 11.091 88.143 12.4993 89.9179 12.4993Z" fill="#CDCED6"/>
<path d="M93.4085 0.947266H86.3715C83.5733 0.947266 81.3015 3.17092 81.3015 5.90981V12.7435C81.3015 15.5366 83.5733 17.7603 86.3715 17.7603H93.3531C96.2067 17.7603 98.4785 15.5366 98.4785 12.7977V5.90981C98.4785 3.17092 96.2067 0.947266 93.4085 0.947266ZM89.9177 13.4757C87.5628 13.4757 85.7066 11.6045 85.7066 9.35377C85.7066 7.10299 87.5905 5.23187 89.9177 5.23187C92.2172 5.23187 94.1011 7.10299 94.1011 9.35377C94.1011 11.6045 92.2449 13.4757 89.9177 13.4757ZM95.7357 5.61152C95.4587 5.90981 95.0431 6.07252 94.5721 6.07252C94.1565 6.07252 93.741 5.90981 93.4085 5.61152C93.1037 5.31322 92.9375 4.93357 92.9375 4.47257C92.9375 4.01157 93.1037 3.65904 93.4085 3.33363C93.7133 3.00821 94.1011 2.84551 94.5721 2.84551C94.9877 2.84551 95.4309 3.00821 95.7357 3.30651C96.0127 3.65904 96.2067 4.06581 96.2067 4.49969C96.179 4.93357 96.0127 5.31322 95.7357 5.61152Z" fill="#CDCED6"/>
<path d="M94.6 3.82129C94.2398 3.82129 93.9351 4.11958 93.9351 4.47211C93.9351 4.82465 94.2398 5.12294 94.6 5.12294C94.9601 5.12294 95.2649 4.82465 95.2649 4.47211C95.2649 4.11958 94.9878 3.82129 94.6 3.82129Z" fill="#CDCED6"/>
<path d="M52.2621 4.1786L53.3299 2.93274C53.639 2.59532 53.7233 2.33577 53.7514 2.20599C52.9084 2.67319 52.1216 2.82892 51.6158 2.82892H51.4191L51.3067 2.7251C50.6323 2.18004 49.7893 1.89453 48.8901 1.89453C46.9231 1.89453 45.3777 3.39994 45.3777 5.13894C45.3777 5.24276 45.3777 5.3985 45.4058 5.50232L45.4901 6.02142L44.9 5.99547C41.3032 5.89165 38.3528 3.03656 37.8751 2.54341C37.0883 3.84118 37.5379 5.08703 38.0156 5.86569L38.9709 7.31919L37.4536 6.54053C37.4817 7.63065 37.9313 8.48718 38.8023 9.1101L39.561 9.62921L38.8023 9.91472C39.28 11.2384 40.3478 11.7835 41.1346 11.9911L42.1743 12.2507L41.1908 12.8736C39.6172 13.9118 37.6503 13.834 36.7792 13.7561C38.5495 14.8981 40.6569 15.1577 42.1181 15.1577C43.214 15.1577 44.0289 15.0539 44.2256 14.976C52.0935 13.263 52.4588 6.77413 52.4588 5.47636V5.29468L52.6274 5.19085C53.5828 4.36028 53.9762 3.91904 54.201 3.65949C54.1167 3.68545 54.0043 3.73736 53.8919 3.76331L52.2621 4.1786Z" fill="#CDCED6"/>
<path d="M9.00007 6.82105H7.50006H6.96434V6.27097V4.56571V4.01562H7.50006H8.62507C8.91971 4.01562 9.16078 3.79559 9.16078 3.46554V0.550085C9.16078 0.247538 8.9465 0 8.62507 0H6.66969C4.55361 0 3.08038 1.54024 3.08038 3.82309V6.21596V6.76605H2.54466H0.72322C0.348217 6.76605 0 7.06859 0 7.50866V9.48897C0 9.87402 0.294645 10.2316 0.72322 10.2316H2.49109H3.02681V10.7817V16.31C3.02681 16.6951 3.32145 17.0526 3.75003 17.0526H6.26791C6.42862 17.0526 6.56255 16.9701 6.66969 16.8601C6.77684 16.7501 6.8572 16.5576 6.8572 16.3925V10.8092V10.2591H7.4197H8.62507C8.97328 10.2591 9.24114 10.0391 9.29471 9.709V9.6815V9.65399L9.66972 7.7562C9.6965 7.56367 9.66972 7.34363 9.509 7.1236C9.45543 6.98608 9.21436 6.84856 9.00007 6.82105Z" fill="#CDCED6"/>
</svg>
